<svg width="20" height="20" viewBox="0 0 20 20" fill="none" xmlns="http://www.w3.org/2000/svg">
<path fill-rule="evenodd" clip-rule="evenodd" d="M16.248 14.9971C16.1656 14.9989 16.0829 14.9999 16 14.9999C9.92487 14.9999 5 10.075 5 3.99987C5 3.91697 5.00092 3.83428 5.00275 3.7518C3.17211 5.21839 2 7.47327 2 9.99984C2 14.4181 5.58172 17.9998 10 17.9998C12.5266 17.9998 14.7814 16.8277 16.248 14.9971ZM17.4661 12.881C16.989 12.9592 16.4992 12.9999 16 12.9999C11.0294 12.9999 7 8.97043 7 3.99987C7 3.50062 7.04065 3.01086 7.11882 2.53373C7.25094 1.72732 7.49024 0.956975 7.82162 0.237793C6.96026 0.429154 6.14073 0.731607 5.37882 1.12934C2.18215 2.79809 0 6.14413 0 9.99984C0 15.5227 4.47715 19.9998 10 19.9998C13.8557 19.9998 17.2017 17.8177 18.8705 14.6211C19.2682 13.8592 19.5707 13.0396 19.762 12.1783C19.0429 12.5096 18.2725 12.7489 17.4661 12.881Z" fill="#3F51B5"/>
</svg>
