<svg width="735" height="176" viewBox="0 0 735 176" fill="none" xmlns="http://www.w3.org/2000/svg">
<g opacity="0.5">
<path d="M635.596 163.295C689.162 81.3725 613.939 35.5716 569.632 22.9115C486.074 1.41222 508.556 55.0638 432.455 67.5184C356.353 79.973 422.103 110.507 423.589 155.887C425.075 201.266 334.698 156.533 339.448 239.911C344.198 323.288 492.104 363.958 460.094 250.586C428.085 137.215 568.638 265.698 635.596 163.295Z" stroke="#F4F4F4" stroke-width="2"/>
<path d="M603.502 165.3C644.731 102.18 586.875 66.9189 552.793 57.1782C488.518 40.6388 505.8 81.9612 447.252 91.5749C388.704 101.188 439.277 124.692 440.408 159.648C441.54 194.604 372.026 160.169 375.658 224.394C379.29 288.619 493.062 319.909 468.467 232.586C443.872 145.264 551.965 244.199 603.502 165.3Z" stroke="#F4F4F4" stroke-width="2"/>
<path d="M665.333 161.352C730.369 61.8225 639.08 6.20521 585.306 -9.16221C483.895 -35.2568 511.169 29.9107 418.798 45.0598C326.427 60.2088 406.222 97.2828 408.014 152.408C409.806 207.532 300.125 153.216 305.868 254.498C311.611 355.779 491.119 405.145 452.298 267.435C413.476 129.725 584.037 285.764 665.333 161.352Z" stroke="#F4F4F4" stroke-width="2"/>
<path d="M690.287 159.827C764.901 45.7464 660.099 -18.0468 598.372 -35.6833C481.963 -65.6345 513.29 9.08485 407.272 26.4196C301.254 43.7543 392.856 86.2851 394.933 149.482C397.009 212.679 271.097 150.371 277.725 266.485C284.352 382.599 490.41 439.256 445.802 281.368C401.194 123.48 597.019 302.427 690.287 159.827Z" stroke="#F4F4F4" stroke-width="2"/>
<path d="M725.987 157.435C814.397 22.0938 690.326 -53.5178 617.239 -74.4059C479.405 -109.873 516.466 -21.2673 390.915 -0.656194C265.364 19.9549 373.815 70.3545 376.243 145.309C378.671 220.263 229.601 146.422 237.393 284.137C245.185 421.851 489.164 488.95 436.417 301.708C383.671 114.466 615.474 326.612 725.987 157.435Z" stroke="#F4F4F4" stroke-width="2"/>
<path d="M767.648 154.597C872.18 -5.66012 725.635 -95.0921 639.296 -119.776C476.468 -161.681 520.205 -56.8173 371.856 -32.3478C223.507 -7.87837 351.612 51.7186 354.438 140.442C357.264 229.165 181.182 141.844 190.309 304.855C199.437 467.866 487.656 547.152 425.444 325.54C363.231 103.928 636.982 354.918 767.648 154.597Z" stroke="#F4F4F4" stroke-width="2"/>
</g>
</svg>
